<svg xmlns="http://www.w3.org/2000/svg" viewBox="0 0 64 64" id="email">
  <path d="M58 37.91V16.7a5.66 5.66 0 0 0-1.93-4.24 5.57 5.57 0 0 0-3.67-1.36H5.6a5.53 5.53 0 0 0-3.66 1.36A5.63 5.63 0 0 0 0 16.7v30.6a5.66 5.66 0 0 0 1.93 4.24A5.57 5.57 0 0 0 5.6 52.9h34.21A12.53 12.53 0 0 0 51.5 61v-4a8.5 8.5 0 0 1-6-14.56A8.4 8.4 0 0 1 51.66 40 8.72 8.72 0 0 1 60 48.85v3.65a1 1 0 0 1-2 0v-4a6.52 6.52 0 1 0-3.64 5.83A5 5 0 0 0 64 52.5v-3.65a13 13 0 0 0-6-10.94ZM50.16 15.1l-17.9 14.41a5.23 5.23 0 0 1-6.52 0L7.84 15.1ZM54 36.27a12.14 12.14 0 0 0-2.27-.27A12.39 12.39 0 0 0 43 39.36l-6.41-4.5-2.3 3.28 6.24 4.37a12.45 12.45 0 0 0-1.52 6v.4H8.35l15.37-10.77-2.29-3.28L4 47.06V17.14l19.23 15.48a9.25 9.25 0 0 0 11.54 0L54 17.14ZM51.5 51a2.5 2.5 0 1 1 2.5-2.5 2.5 2.5 0 0 1-2.5 2.5Z"></path>
</svg>
